<svg xmlns="http://www.w3.org/2000/svg" width="369" height="99" viewBox="0 0 369 99">
<g>
<path d="M 229.72,81.02 L 229.68,78.78 L 229.67,77.95 L 229.63,76.46 L 229.62,75.99 L 229.58,75.24 L 229.57,75.13 L 229.53,75.09 L 229.51,75.33 L 229.47,75.99 L 229.45,76.56 L 229.40,77.89 L 229.38,78.80 L 229.32,80.77 L 229.28,82.00 L 229.12,86.34 L 228.96,88.77 L 228.85,89.77 L 228.62,91.64 L 228.46,92.40 L 228.11,93.79 L 227.88,94.32 L 227.39,95.29 L 227.08,95.65 L 226.42,96.26 L 226.02,96.46 L 225.17,96.80 L 224.65,96.88 L 223.57,97.00 L 222.94,97.00 L 221.27,96.90 L 220.36,96.74 L 220.00,96.60 L 219.34,96.31 L 219.11,96.11 L 218.71,95.68 L 218.61,95.42 L 218.49,94.37 L 218.41,92.98 L 218.37,91.97 L 218.30,89.76 L 218.27,88.38 L 218.21,85.45 L 218.18,83.76 L 218.13,80.21 L 218.10,78.24 L 218.06,74.19 L 218.05,72.00 L 218.02,67.53 L 218.01,65.18 L 218.00,60.41 L 218.00,22.04 L 220.50,21.41 L 222.97,21.16 L 224.74,21.29 L 225.58,21.47 L 227.21,21.92 L 227.85,22.23 L 229.00,22.92 L 229.28,23.33 L 229.57,23.57 L 229.72,23.48 L 229.77,23.31 L 229.84,22.91 L 229.84,22.61 L 229.83,21.93 L 229.79,21.50 L 229.50,18.50 L 229.82,21.84 L 229.90,22.63 L 230.04,23.66 L 230.12,24.09 L 230.36,24.46 L 230.50,24.57 L 230.94,24.38 L 231.95,23.54 L 233.11,22.49 L 235.51,20.90 L 236.75,20.19 L 238.13,19.69 L 237.40,20.05 L 234.75,21.54 L 233.08,22.65 L 232.43,23.16 L 231.28,24.14 L 231.03,24.47 L 230.85,24.77 L 230.86,24.86 L 230.96,25.00 L 231.13,25.00 L 231.75,24.80 L 232.58,24.49 L 233.15,24.27 L 234.40,23.77 L 235.14,23.48 L 236.67,22.86 L 237.50,22.52 L 243.62,20.67 L 247.87,20.03 L 250.02,19.99 L 254.34,20.13 L 256.47,20.49 L 260.69,21.40 L 262.71,22.15 L 266.51,23.85 L 268.75,25.17 L 269.72,25.94 L 271.57,27.53 L 272.36,28.44 L 273.85,30.35 L 274.46,31.43 L 275.60,33.68 L 276.05,34.94 L 276.86,37.55 L 277.15,39.01 L 277.65,42.03 L 277.79,43.71 L 278.00,47.16 L 278.00,49.06 L 277.98,51.66 L 277.94,53.15 L 277.91,53.81 L 277.71,56.20 L 277.52,57.19 L 277.04,59.08 L 276.67,60.03 L 275.81,61.96 L 275.20,63.13 L 272.62,67.20 L 270.65,69.39 L 269.44,70.30 L 266.83,72.03 L 265.17,72.80 L 263.45,73.56 L 262.48,73.93 L 260.46,74.68 L 259.33,75.06 L 253.73,76.46 L 250.30,76.78 L 248.59,76.62 L 245.15,76.07 L 243.28,75.45 L 241.38,74.78 L 240.36,74.36 L 238.28,73.45 L 237.16,72.91 L 234.66,71.76 L 233.17,71.11 L 232.56,70.87 L 231.44,70.45 L 231.06,70.35 L 230.46,70.21 L 230.40,70.26 L 230.35,70.68 L 230.54,71.06 L 230.73,71.29 L 230.88,71.44 L 230.00,70.65 L 230.00,99.00 L 229.79,85.25 M 243.55,77.47 L 245.72,77.73 L 246.92,77.81 L 249.39,77.94 L 250.71,77.94 L 255.77,77.76 L 257.66,77.54 L 256.60,77.74 L 252.64,78.06 L 250.65,78.15 L 246.73,77.94 L 244.80,77.77 L 242.88,77.37 M 38.91,3.23 L 39.65,3.32 L 42.78,3.78 L 44.47,4.19 L 47.91,5.11 L 49.59,5.71 L 52.90,6.99 L 54.36,7.72 L 57.11,9.39 L 58.92,10.75 L 59.79,11.52 L 61.49,13.10 L 62.27,13.95 L 63.78,15.65 L 64.44,16.51 L 65.68,18.23 L 66.17,19.06 L 67.05,20.69 L 67.34,21.43 L 67.79,22.85 L 67.83,23.45 L 67.76,24.57 L 67.51,24.98 L 66.94,25.38 L 66.27,25.61 L 65.84,25.70 L 63.84,26.00 L 62.69,26.00 L 60.31,25.85 L 59.05,25.53 L 58.45,25.18 L 57.25,24.33 L 56.54,23.64 L 55.80,22.89 L 55.38,22.44 L 54.50,21.47 L 53.99,20.89 L 51.43,18.14 L 50.02,16.90 L 49.32,16.48 L 47.91,15.76 L 47.05,15.52 L 45.22,15.09 L 43.99,14.89 L 38.53,14.42 L 34.80,14.47 L 33.06,14.65 L 29.71,15.12 L 28.35,15.49 L 27.07,15.88 L 26.54,16.11 L 25.55,16.59 L 25.20,16.86 L 23.49,18.96 L 22.58,20.83 L 22.40,21.71 L 22.35,23.89 L 22.71,25.27 L 23.08,25.93 L 23.95,27.20 L 24.57,27.80 L 25.94,28.97 L 26.81,29.52 L 28.68,30.57 L 29.79,31.05 L 32.14,31.99 L 33.49,32.41 L 36.32,33.22 L 37.90,33.57 L 41.19,34.25 L 43.00,34.53 L 48.98,35.79 L 52.93,36.91 L 54.78,37.57 L 58.36,38.96 L 59.91,39.72 L 62.82,41.26 L 63.91,42.05 L 67.33,45.15 L 69.01,47.44 L 69.57,48.72 L 70.50,51.37 L 70.70,52.87 L 70.92,56.00 L 70.77,57.76 L 70.40,60.65 L 70.02,62.17 L 69.71,62.83 L 69.00,64.13 L 68.48,64.80 L 67.29,66.19 L 66.47,67.03 L 63.74,69.49 L 61.80,70.82 L 60.56,71.42 L 59.28,72.02 L 58.53,72.32 L 56.97,72.93 L 56.05,73.25 L 54.14,73.91 L 53.02,74.27 L 50.67,75.01 L 49.31,75.42 L 45.74,76.36 L 43.99,76.59 L 40.49,76.87 L 38.68,76.77 L 35.01,76.38 L 33.04,75.93 L 28.97,74.85 L 26.70,74.05 L 20.93,71.59 L 17.68,69.71 L 16.31,68.62 L 13.73,66.34 L 12.67,65.02 L 10.66,62.25 L 9.84,60.65 L 8.99,58.86 L 8.60,57.83 L 8.49,57.40 L 8.33,56.58 L 8.34,56.24 L 8.43,55.61 L 8.57,55.36 L 8.91,54.90 L 9.18,54.72 L 9.79,54.41 L 10.20,54.30 L 11.09,54.12 L 11.65,54.07 L 12.83,54.00 L 13.53,54.00 L 16.13,54.13 L 17.46,54.42 L 18.05,54.73 L 19.24,55.49 L 19.91,56.11 L 20.61,56.79 L 21.00,57.20 L 21.83,58.08 L 22.30,58.60 L 26.00,62.22 L 27.18,63.23 L 27.69,63.61 L 28.65,64.29 L 29.00,64.46 L 32.07,65.61 L 34.40,66.14 L 35.66,66.30 L 38.23,66.54 L 39.56,66.55 L 42.23,66.51 L 43.55,66.38 L 46.17,66.07 L 47.42,65.82 L 49.86,65.25 L 50.97,64.88 L 53.08,64.07 L 53.97,63.58 L 55.62,62.54 L 56.22,61.94 L 58.26,59.03 L 58.99,56.94 L 59.04,55.89 L 58.91,53.80 L 58.53,52.84 L 57.54,50.98 L 56.72,50.21 L 54.07,48.38 L 51.73,47.20 L 50.44,46.70 L 47.85,45.78 L 46.63,45.48 L 44.29,45.00 L 43.39,45.00 L 40.82,44.75 L 38.48,44.35 L 37.03,44.04 L 33.96,43.35 L 32.18,42.90 L 28.48,41.93 L 26.43,41.35 L 20.70,39.10 L 17.46,37.16 L 16.14,36.01 L 13.72,33.61 L 12.83,32.28 L 11.27,29.54 L 10.82,28.10 L 10.15,25.16 L 10.16,23.66 L 10.43,20.64 L 10.92,19.15 L 12.16,16.19 L 13.16,14.77 L 14.23,13.36 L 14.86,12.68 L 16.18,11.34 L 16.94,10.70 L 18.55,9.53 L 19.85,8.74 L 20.59,8.35 L 23.75,6.79 L 25.51,6.10 L 29.10,4.78 L 30.85,4.28 L 34.29,3.43 L 35.77,3.25 L 37.55,3.17 M 183.01,20.20 L 185.83,20.54 L 187.16,20.81 L 189.76,21.41 L 190.97,21.82 L 193.34,22.69 L 194.43,23.23 L 196.56,24.37 L 197.54,25.04 L 199.45,26.45 L 200.31,27.26 L 201.98,28.94 L 202.73,29.88 L 204.17,31.83 L 204.80,32.91 L 206.26,35.69 L 206.89,37.40 L 207.08,38.43 L 207.24,39.49 L 207.30,40.11 L 207.40,41.41 L 207.43,42.18 L 207.47,43.80 L 207.49,44.77 L 207.50,46.80 L 207.50,48.00 L 207.49,51.25 L 207.46,53.08 L 207.43,53.85 L 207.35,55.30 L 207.30,55.92 L 207.16,57.10 L 207.07,57.61 L 206.62,59.49 L 206.24,60.37 L 205.36,62.13 L 204.72,63.22 L 201.94,66.89 L 199.59,69.08 L 198.14,70.07 L 195.08,71.96 L 193.26,72.81 L 189.42,74.45 L 187.19,75.18 L 183.91,76.18 L 182.43,76.45 L 179.54,76.86 L 178.11,76.84 L 175.23,76.66 L 173.66,76.34 L 170.40,75.56 L 168.50,74.95 L 165.29,73.84 L 163.35,73.08 L 162.47,72.69 L 159.20,71.10 L 157.86,70.20 L 155.37,68.34 L 154.34,67.26 L 152.41,64.98 L 151.58,63.63 L 149.98,60.78 L 149.26,59.02 L 149.02,58.04 L 148.62,55.93 L 148.49,54.56 L 148.37,53.11 L 148.32,52.27 L 148.22,50.51 L 148.18,49.49 L 148.07,46.66 L 148.03,45.05 L 148.04,44.35 L 148.11,41.83 L 148.25,40.81 L 148.63,38.86 L 148.96,37.89 L 149.73,35.90 L 150.30,34.66 L 152.19,31.28 L 153.70,29.24 L 154.58,28.33 L 156.41,26.57 L 157.45,25.81 L 159.59,24.35 L 160.78,23.74 L 163.22,22.58 L 164.56,22.11 L 167.30,21.26 L 168.78,20.94 L 171.82,20.39 L 173.44,20.24 L 176.75,20.00 L 178.50,20.00 M 239.45,76.59 L 239.37,76.57 L 239.21,76.50 M 236.90,75.55 L 236.21,75.26 L 235.49,74.79 M 87.51,5.14 L 88.18,5.33 L 89.41,5.81 L 89.80,6.20 L 90.29,7.21 L 90.56,8.33 L 90.67,9.07 L 90.86,10.66 L 90.91,11.60 L 91.00,13.55 L 91.00,14.62 L 91.06,18.45 L 91.17,20.52 L 91.28,21.33 L 91.55,22.80 L 91.76,23.33 L 92.25,24.25 L 92.59,24.52 L 93.35,24.93 L 93.86,24.96 L 94.95,24.91 L 95.65,24.72 L 97.13,24.26 L 98.05,23.89 L 99.99,23.05 L 101.15,22.51 L 106.49,20.65 L 110.11,19.99 L 111.91,19.93 L 115.49,19.98 L 117.23,20.26 L 120.67,20.99 L 122.29,21.59 L 125.46,22.95 L 126.91,23.85 L 129.70,25.80 L 130.91,26.98 L 133.20,29.48 L 134.12,30.91 L 135.80,33.91 L 136.37,35.59 L 137.15,38.69 L 137.53,41.25 L 137.65,42.91 L 137.77,44.65 L 137.81,45.63 L 137.89,47.70 L 137.92,48.87 L 137.97,51.30 L 137.98,52.68 L 138.00,55.55 L 138.00,73.96 L 135.43,74.61 L 132.92,74.75 L 131.14,74.47 L 130.49,74.18 L 129.14,73.27 L 128.83,72.79 L 128.71,72.44 L 128.49,71.65 L 128.40,71.09 L 128.25,69.87 L 128.19,69.04 L 128.08,67.25 L 128.04,66.09 L 127.96,63.60 L 127.93,62.05 L 127.86,58.73 L 127.82,56.72 L 127.71,51.33 L 127.63,48.40 L 127.59,47.22 L 127.49,45.04 L 127.42,44.17 L 127.28,42.57 L 127.17,41.94 L 126.95,40.77 L 126.81,40.29 L 126.49,39.40 L 126.28,39.00 L 125.33,37.50 L 124.62,36.56 L 121.67,33.43 L 119.54,31.97 L 118.28,31.51 L 116.98,31.10 L 116.26,30.95 L 114.78,30.69 L 113.94,30.62 L 112.22,30.51 L 111.26,30.51 L 109.26,30.53 L 108.14,30.58 L 104.28,30.86 L 102.31,31.14 L 101.51,31.36 L 100.03,31.86 L 99.35,32.23 L 98.02,33.04 L 97.29,33.59 L 95.45,35.14 L 94.42,36.19 L 94.00,36.76 L 93.21,37.95 L 92.90,38.63 L 92.32,40.08 L 92.10,40.93 L 91.69,42.74 L 91.55,43.82 L 91.30,46.11 L 91.21,47.47 L 91.08,50.36 L 91.05,52.07 L 91.00,55.66 L 91.00,57.77 L 90.98,61.35 L 90.95,63.50 L 90.93,64.46 L 90.87,66.30 L 90.84,67.11 L 90.76,68.64 L 90.71,69.30 L 90.60,70.54 L 90.54,71.05 L 90.41,72.01 L 90.34,72.38 L 90.18,73.06 L 90.09,73.29 L 89.90,73.70 L 89.80,73.80 L 88.84,74.48 L 88.18,74.67 L 86.76,74.96 L 86.00,74.96 L 84.49,74.86 L 83.82,74.67 L 82.59,74.19 L 82.20,73.80 L 81.90,72.78 L 81.72,71.43 L 81.64,70.47 L 81.48,68.37 L 81.42,67.07 L 81.29,64.33 L 81.23,62.75 L 81.13,59.49 L 81.09,57.71 L 81.02,54.05 L 80.99,52.11 L 80.91,44.12 L 80.91,40.00 L 80.94,31.76 L 80.99,27.89 L 81.05,24.08 L 81.09,22.29 L 81.18,18.82 L 81.23,17.25 L 81.35,14.23 L 81.42,12.93 L 81.56,10.49 L 81.64,9.53 L 81.80,7.79 L 81.90,7.22 L 82.09,6.31 L 82.20,6.20 L 83.82,5.33 L 85.24,5.04 L 86.00,5.04 M 295.43,5.39 L 298.00,6.04 L 298.00,39.91 L 298.00,45.23 L 297.99,48.49 L 297.99,49.98 L 297.98,52.86 L 297.97,54.18 L 297.96,56.72 L 297.95,57.87 L 297.93,60.08 L 297.91,61.08 L 297.89,63.00 L 297.87,63.85 L 297.79,66.99 L 297.73,68.19 L 297.61,70.36 L 297.53,71.15 L 297.36,72.53 L 297.26,72.99 L 297.03,73.77 L 296.89,73.99 L 296.59,74.33 L 296.42,74.39 L 294.58,74.88 L 293.47,74.87 L 291.12,74.67 L 289.75,74.31 L 289.21,74.00 L 288.91,73.58 L 288.79,73.20 L 288.57,72.28 L 288.48,71.57 L 288.33,69.97 L 288.27,68.83 L 288.21,67.63 L 288.19,66.94 L 288.14,65.48 L 288.13,64.65 L 288.09,62.91 L 288.08,61.93 L 288.05,59.88 L 288.05,58.73 L 288.03,56.34 L 288.02,55.01 L 288.01,52.27 L 288.01,50.75 L 288.00,47.61 L 288.00,45.89 L 288.00,42.34 L 288.00,6.96 L 290.43,5.85 L 292.90,5.26 L 294.72,5.21 M 313.91,21.24 L 315.55,21.72 L 316.20,22.21 L 316.65,22.93 L 317.09,23.87 L 317.36,24.54 L 317.95,26.01 L 318.29,26.91 L 318.99,28.83 L 319.38,29.93 L 320.19,32.21 L 320.62,33.46 L 321.49,36.02 L 321.95,37.38 L 323.80,43.02 L 324.74,45.95 L 326.59,51.83 L 327.45,54.63 L 328.29,57.41 L 328.68,58.72 L 329.43,61.30 L 329.77,62.48 L 330.42,64.77 L 330.69,65.78 L 331.20,67.71 L 331.39,68.51 L 331.74,69.99 L 331.84,70.53 L 332.00,71.49 L 332.00,71.74 L 331.86,72.86 L 331.63,73.30 L 331.09,74.07 L 330.75,74.17 L 328.92,74.35 L 327.31,74.29 L 326.47,74.18 L 324.83,73.93 L 324.18,73.76 L 323.03,73.38 L 322.82,73.17 L 322.44,72.43 L 322.07,71.46 L 321.82,70.77 L 321.29,69.24 L 320.98,68.30 L 320.33,66.32 L 319.97,65.18 L 319.22,62.81 L 318.82,61.51 L 318.00,58.86 L 317.57,57.45 L 315.82,51.64 L 314.94,48.64 L 313.18,42.62 L 312.38,39.78 L 311.59,36.99 L 311.22,35.67 L 310.51,33.11 L 310.20,31.94 L 309.60,29.70 L 309.35,28.73 L 308.88,26.90 L 308.71,26.17 L 308.40,24.83 L 308.32,24.38 L 308.20,23.63 L 308.21,23.50 L 308.55,22.67 L 308.96,22.19 L 309.25,22.00 L 310.56,21.34 L 311.37,21.21 L 313.07,21.08 M 272.75,70.75 L 271.68,71.86 L 270.55,72.62 L 271.06,72.20 L 272.94,70.51 L 272.98,70.46 M 278.72,61.23 L 278.11,63.04 L 276.34,66.25 L 275.63,67.14 L 276.16,66.30 L 277.56,63.86 L 278.18,62.50 L 278.81,60.91 M 239.66,31.18 L 238.45,31.49 L 237.85,31.78 L 236.66,32.45 L 236.00,32.95 L 234.62,34.08 L 233.80,34.85 L 231.56,37.10 L 230.55,38.41 L 230.21,39.11 L 229.63,40.59 L 229.42,41.55 L 229.06,43.66 L 228.88,45.10 L 228.58,50.58 L 228.65,52.19 L 228.73,52.87 L 228.92,54.13 L 229.07,54.59 L 230.48,57.37 L 231.92,59.31 L 232.81,60.24 L 234.68,62.04 L 235.70,62.80 L 237.76,64.22 L 238.77,64.69 L 239.75,65.05 L 240.43,65.20 L 241.90,65.45 L 242.79,65.53 L 244.65,65.67 L 245.70,65.69 L 247.85,65.70 L 249.00,65.66 L 252.45,65.38 L 254.55,65.07 L 255.50,64.85 L 257.34,64.37 L 258.17,64.05 L 259.76,63.38 L 260.47,62.97 L 261.84,62.10 L 262.44,61.59 L 263.59,60.52 L 264.09,59.90 L 265.04,58.62 L 265.45,57.89 L 266.22,56.39 L 266.54,55.55 L 267.60,51.15 L 267.83,47.99 L 267.72,46.40 L 267.34,43.22 L 266.93,41.74 L 265.96,38.87 L 265.26,37.65 L 263.02,35.00 L 261.04,33.44 L 259.92,32.84 L 257.62,31.77 L 256.48,31.49 L 254.25,31.10 L 253.28,31.22 L 251.86,31.45 L 251.46,31.61 L 251.55,31.72 L 251.94,31.95 L 252.45,32.13 L 253.69,32.52 L 254.66,32.81 L 256.06,33.45 L 253.54,32.62 L 252.12,32.23 L 249.16,31.95 L 247.68,31.88 L 244.73,32.20 L 243.27,32.44 L 240.48,33.35 L 239.13,33.87 L 236.67,35.33 L 235.89,35.87 L 237.34,34.56 L 238.29,33.96 L 239.22,33.41 L 239.64,33.25 L 240.45,32.99 L 240.78,32.98 L 242.44,32.69 L 243.59,32.27 L 244.00,32.00 L 244.51,31.54 L 244.51,31.32 L 244.33,31.24 L 243.85,31.11 L 243.41,31.07 L 242.41,31.02 L 241.71,31.02 M 177.70,30.70 L 175.26,30.79 L 174.08,30.91 L 171.76,31.20 L 170.69,31.42 L 168.64,31.89 L 167.76,32.20 L 166.12,32.87 L 165.51,33.27 L 162.52,35.72 L 160.98,37.57 L 160.42,38.65 L 159.43,40.92 L 159.11,42.27 L 158.59,45.10 L 158.48,46.78 L 158.43,49.74 L 158.55,51.56 L 158.69,52.41 L 159.02,54.05 L 159.26,54.81 L 159.80,56.28 L 160.15,56.96 L 160.91,58.27 L 161.37,58.87 L 162.35,60.04 L 162.93,60.57 L 164.14,61.59 L 164.84,62.06 L 166.29,62.96 L 167.11,63.37 L 169.05,64.29 L 169.92,64.62 L 171.64,65.17 L 172.54,65.34 L 174.40,65.60 L 175.52,65.64 L 177.91,65.67 L 179.44,65.62 L 183.38,65.40 L 185.34,65.15 L 186.13,64.94 L 187.60,64.44 L 188.28,64.07 L 189.64,63.22 L 190.42,62.63 L 192.36,61.07 L 193.45,60.08 L 193.91,59.59 L 195.51,57.66 L 196.01,56.59 L 196.83,54.35 L 197.02,52.96 L 197.18,51.51 L 197.22,50.69 L 197.27,48.99 L 197.26,48.02 L 197.15,45.19 L 196.98,43.48 L 196.85,42.70 L 196.17,39.79 L 195.60,38.59 L 194.29,36.34 L 193.36,35.39 L 191.33,33.61 L 190.01,32.82 L 187.70,31.83 L 185.81,31.33 L 184.73,31.16 L 182.51,30.86 L 181.32,30.78 L 178.92,30.68 M 247.93,63.87 L 248.36,63.87 L 247.27,63.92 L 245.88,63.82 L 245.85,63.81 M 251.50,63.65 L 250.10,63.78 L 250.09,63.78 L 251.57,63.63 M 233.06,57.38 L 233.65,58.26 L 235.08,59.79 L 235.54,60.23 L 234.96,59.73 L 233.27,58.03 L 232.67,57.02 L 232.25,56.05 M 264.49,54.79 L 263.81,55.96 L 262.28,58.23 L 261.23,59.21 L 260.88,59.46 L 261.95,58.40 L 262.82,57.43 L 264.14,55.21 L 264.72,54.10 M 265.64,50.95 L 265.31,52.24 L 264.79,53.87 L 265.46,51.62 L 265.65,50.80 M 280.43,49.51 L 280.43,48.98 L 280.43,49.35 M 230.52,44.46 L 230.61,43.68 L 230.92,42.74 M 230.93,42.70 L 230.95,42.65 L 230.97,42.62 M 258.49,34.56 L 260.68,36.21 L 261.58,37.21 L 263.24,39.34 L 263.68,40.19 L 261.12,36.88 L 260.07,35.83 L 257.61,34.25 L 256.68,33.73 M 232.28,40.19 L 232.65,39.50 L 232.89,39.19 M 256.00,18.11 L 257.41,18.18 L 259.65,18.46 L 260.71,18.64 L 262.59,19.18 L 265.50,20.38 L 262.58,19.31 L 260.34,18.74 L 259.11,18.53 L 255.74,18.10 M 241.19,18.76 L 240.16,19.04 L 238.41,19.60 L 239.54,19.20 L 241.01,18.77 L 241.60,18.68 Z" fill="rgba(91,201,78,1)"/>
<path d="M 229.72,20.85 L 229.49,20.49 L 229.09,20.34 L 228.11,20.11 L 227.30,20.06 L 226.42,20.02 L 225.88,20.01 L 224.73,20.00 L 224.04,20.00 L 221.00,20.08 L 219.54,20.23 L 219.02,20.37 L 218.12,20.71 L 217.80,20.97 L 217.25,21.54 L 217.04,21.93 L 216.83,23.02 L 216.71,24.40 L 216.65,25.38 L 216.54,27.52 L 216.49,28.83 L 216.39,31.61 L 216.35,33.20 L 216.26,36.51 L 216.23,38.32 L 216.16,42.04 L 216.13,44.02 L 216.03,52.18 L 216.01,56.43 L 215.98,64.96 L 215.99,69.05 L 216.01,73.09 L 216.03,75.00 L 216.06,78.76 L 216.09,80.49 L 216.14,83.84 L 216.18,85.33 L 216.26,88.17 L 216.30,89.35 L 216.40,91.56 L 216.46,92.38 L 216.57,93.84 L 216.64,94.25 L 217.26,98.00 L 229.98,98.00 L 230.00,99.00 L 214.98,99.00 L 215.24,58.75 L 215.50,18.50 L 229.50,18.50 M 301.02,76.73 L 297.26,77.36 L 295.77,77.60 L 293.12,77.87 L 291.87,77.96 L 289.81,77.93 L 288.87,77.88 L 287.52,77.55 L 286.95,77.35 L 286.46,76.75 L 286.42,76.66 L 286.36,75.75 L 286.34,75.18 L 286.29,73.38 L 286.27,72.38 L 286.23,69.79 L 286.22,68.41 L 286.19,65.14 L 286.19,64.24 L 286.20,64.66 L 286.26,67.72 L 286.29,69.01 L 286.37,71.41 L 286.41,72.33 L 286.49,73.98 L 286.53,74.49 L 286.62,75.29 L 286.67,75.33 L 286.99,75.51 L 287.34,75.59 L 288.15,75.74 L 288.69,75.80 L 291.17,76.00 L 292.63,76.00 L 295.28,75.91 L 296.59,75.76 L 297.07,75.61 L 297.92,75.27 L 298.22,75.02 L 298.76,74.45 L 298.96,74.07 L 299.20,72.93 L 299.35,71.55 L 299.41,70.59 L 299.53,68.48 L 299.59,67.20 L 299.69,64.49 L 299.73,62.95 L 299.81,59.75 L 299.85,58.00 L 299.91,54.42 L 299.93,52.53 L 300.00,44.73 L 300.01,40.70 L 299.99,32.63 L 299.95,28.81 L 299.91,25.05 L 299.88,23.28 L 299.81,19.82 L 299.77,18.25 L 299.69,15.21 L 299.63,13.89 L 299.53,11.39 L 299.46,10.38 L 299.33,8.52 L 299.26,7.88 L 299.11,6.79 L 299.02,6.57 L 298.36,5.23 L 297.83,4.63 L 297.44,4.45 L 296.58,4.16 L 295.96,4.09 L 294.57,4.00 L 293.61,4.00 L 290.92,3.95 L 289.50,3.98 L 288.95,4.15 L 287.95,4.61 L 287.58,5.12 L 287.24,5.69 L 287.10,6.06 L 286.83,6.88 L 286.72,7.39 L 286.52,8.50 L 286.45,9.04 L 286.50,2.50 L 300.50,2.50 M 40.98,77.72 L 42.12,77.69 L 40.98,77.72 M 94.00,60.52 L 93.94,65.02 L 93.90,67.18 L 93.78,70.78 L 93.75,71.61 L 93.67,73.03 L 93.63,73.69 L 93.54,74.75 L 93.50,75.23 L 93.40,75.87 L 93.25,76.33 L 93.07,76.43 L 92.38,76.63 L 91.99,76.73 L 90.95,76.92 L 89.86,77.09 L 87.16,77.35 L 85.81,77.46 L 83.35,77.52 L 82.80,77.52 L 81.90,77.47 L 81.50,77.43 L 81.00,77.30 L 80.59,77.14 L 79.75,76.58 L 78.85,75.70 L 78.79,75.62 L 78.70,74.68 L 78.66,74.10 L 78.59,72.26 L 78.56,71.24 L 78.55,70.88 L 78.56,71.02 L 78.61,71.90 L 78.71,73.45 L 78.78,73.89 L 78.92,74.55 L 79.00,74.50 L 79.79,74.42 L 80.32,74.70 L 80.49,74.98 L 81.16,75.38 L 81.97,75.61 L 82.52,75.70 L 85.04,76.00 L 86.52,76.00 L 89.24,75.92 L 90.57,75.76 L 91.05,75.61 L 91.91,75.27 L 92.22,75.02 L 92.76,74.45 L 92.96,74.07 L 93.18,73.35 L 93.31,72.59 L 93.38,72.09 L 93.50,70.98 L 93.55,70.32 L 93.66,68.92 L 93.70,68.12 L 93.87,64.68 L 93.92,62.66 L 94.00,58.47 M 31.00,77.48 L 30.58,77.44 L 30.57,77.44 M 28.36,77.03 L 29.55,77.25 L 28.45,77.05 L 27.41,76.83 L 27.34,76.81 M 327.06,45.49 L 327.93,48.32 L 329.65,54.04 L 330.50,56.85 L 332.08,62.14 L 332.45,63.41 L 333.15,65.78 L 333.49,66.93 L 334.10,69.02 L 334.39,70.02 L 334.89,71.75 L 335.12,72.57 L 335.49,73.89 L 335.65,74.49 L 335.87,75.33 L 336.00,75.97 L 336.00,76.12 L 335.46,76.39 L 335.11,76.52 L 333.94,76.72 L 333.29,76.81 L 331.58,76.93 L 328.52,77.00 L 327.60,77.00 L 326.08,76.99 L 325.37,76.99 L 324.24,76.95 L 323.71,76.93 L 322.89,76.84 L 322.51,76.79 L 321.95,76.64 L 321.43,76.46 L 320.93,75.82 L 320.73,75.44 L 320.48,74.25 L 320.40,73.87 L 320.11,72.71 L 320.03,72.39 L 320.51,73.73 L 321.27,74.64 L 321.75,74.92 L 322.37,75.19 L 322.84,75.32 L 323.89,75.55 L 324.53,75.65 L 327.31,75.96 L 328.75,75.97 L 334.00,76.00 L 334.00,72.25 L 333.91,71.20 L 333.76,70.24 L 333.65,69.65 L 333.40,68.39 L 333.25,67.67 L 332.91,66.17 L 332.71,65.34 L 331.84,61.85 L 331.32,59.93 L 330.22,55.99 L 329.62,54.00 L 327.69,47.58 L 326.91,44.97 M 25.54,76.23 L 25.45,76.20 L 25.45,76.19 M 23.92,75.66 L 23.75,75.59 L 22.31,74.96 M 12.55,68.69 L 14.24,70.18 L 15.19,70.89 L 17.15,72.25 L 18.21,72.88 L 20.41,74.10 L 21.22,74.47 L 20.65,74.22 L 19.16,73.51 L 16.52,71.94 L 15.27,71.13 L 13.12,69.38 L 11.84,68.02 M 205.24,66.79 L 203.45,68.90 L 202.51,69.92 L 200.39,71.69 L 199.29,72.54 L 196.83,73.97 L 196.57,74.11 L 196.82,73.97 L 200.12,71.88 L 201.69,70.54 L 205.44,66.48 M 316.10,58.94 L 316.84,61.28 L 317.18,62.34 L 317.83,64.33 L 318.09,65.10 L 319.44,69.53 L 319.75,70.77 L 319.85,71.24 L 320.00,72.08 L 320.00,72.27 L 319.95,72.08 L 319.53,70.55 L 318.04,65.50 L 317.53,63.85 L 316.57,60.67 L 316.35,59.95 L 316.01,58.75 L 315.76,57.84 M 151.49,67.95 L 152.03,68.51 L 151.49,67.95 M 10.33,66.31 L 11.56,67.72 L 10.50,66.59 L 9.89,65.79 L 9.87,65.76 M 29.49,61.99 L 30.97,62.64 L 34.47,63.46 L 40.41,63.92 L 34.42,63.46 L 30.92,62.64 L 29.44,61.98 L 27.71,61.06 M 26.69,60.52 L 26.68,60.51 L 26.46,60.32 M 9.87,52.03 L 11.26,52.11 L 11.99,52.16 L 13.67,52.31 L 16.50,52.62 L 17.58,52.75 L 18.05,52.84 L 16.93,52.75 L 16.23,52.74 L 14.75,52.75 L 13.88,52.79 L 12.06,52.88 L 11.00,52.96 L 8.42,53.39 L 7.24,53.92 L 6.90,54.35 L 6.36,55.31 L 6.30,55.99 L 6.31,57.49 L 6.49,58.48 L 6.92,59.96 L 6.84,59.78 L 6.30,58.49 L 5.52,56.11 L 5.35,55.55 L 5.14,54.57 L 5.00,53.37 L 5.00,52.99 L 5.65,52.48 L 6.09,52.26 L 7.69,52.06 L 8.16,52.03 L 9.28,52.03 M 209.15,58.79 L 208.83,59.67 L 209.29,58.23 M 147.22,59.60 L 146.89,58.59 L 146.89,58.57 M 146.69,57.41 L 146.21,54.59 L 146.21,54.51 M 209.12,37.27 L 209.43,38.35 L 209.90,40.67 L 210.32,43.03 L 210.53,48.06 L 210.53,50.57 L 209.92,55.42 L 209.71,56.59 L 209.64,56.89 L 209.90,55.20 L 210.19,52.95 L 210.27,51.75 L 210.39,49.31 L 210.38,48.00 L 210.24,44.16 L 210.02,41.78 L 209.85,40.67 L 209.45,38.51 L 209.18,37.50 L 208.91,36.61 M 22.08,54.69 L 22.61,55.57 L 21.80,54.40 M 21.36,53.93 L 21.54,54.12 L 20.97,53.71 M 94.55,42.13 L 94.39,43.25 L 94.19,46.06 L 94.11,47.57 L 94.03,51.29 L 94.03,51.55 L 94.04,50.09 L 94.12,46.73 L 94.21,45.35 L 94.42,42.79 L 94.59,41.76 L 94.91,40.17 M 145.80,47.76 L 145.79,47.66 L 145.79,47.54 M 310.23,39.26 L 310.63,40.52 L 310.86,41.30 L 311.36,42.96 L 311.66,43.98 L 312.30,46.17 L 312.69,47.49 L 312.75,47.71 L 312.40,46.57 L 311.23,42.67 L 310.95,41.77 L 310.50,40.22 L 310.13,38.94 M 17.86,39.87 L 20.26,40.97 L 21.67,41.50 L 24.66,42.52 L 26.39,43.03 L 30.04,44.02 L 32.13,44.52 L 35.86,45.37 L 33.83,44.93 L 32.24,44.57 L 29.44,43.90 L 28.10,43.57 L 25.75,42.93 L 24.62,42.60 L 22.65,41.97 L 21.71,41.64 L 20.06,40.99 L 19.27,40.66 L 17.88,39.96 L 17.42,39.66 M 147.42,34.83 L 146.86,36.52 L 146.65,37.44 L 146.27,39.33 L 146.14,40.36 L 145.92,42.50 L 145.87,43.68 L 145.82,45.20 L 145.85,43.93 L 145.89,42.78 L 146.07,40.73 L 146.17,39.75 L 146.49,37.97 L 146.66,37.11 L 147.15,35.52 L 147.68,33.97 L 147.82,33.72 M 88.35,2.12 L 91.75,2.63 L 92.29,2.77 L 93.01,3.19 L 93.32,3.47 L 93.68,4.61 L 93.75,4.96 L 93.85,5.91 L 93.90,6.43 L 93.95,7.75 L 93.97,8.47 L 93.99,10.25 L 94.00,13.51 L 94.00,16.11 L 93.93,12.69 L 93.80,10.75 L 93.69,9.95 L 93.42,8.44 L 93.23,7.83 L 92.80,6.70 L 92.50,6.26 L 91.87,5.46 L 91.46,5.16 L 90.59,4.64 L 90.06,4.47 L 88.93,4.18 L 88.25,4.11 L 86.82,4.00 L 85.98,4.00 L 83.50,4.09 L 82.27,4.26 L 81.82,4.41 L 81.02,4.78 L 80.72,5.05 L 80.18,5.67 L 79.95,6.08 L 79.71,7.28 L 79.55,8.75 L 79.47,9.78 L 79.32,12.03 L 79.25,13.40 L 79.12,16.30 L 79.05,17.95 L 78.93,21.37 L 78.87,23.23 L 78.76,27.04 L 78.71,29.05 L 78.53,37.32 L 78.48,41.10 L 78.49,39.44 L 78.53,34.98 L 78.64,26.35 L 78.67,24.25 L 78.74,20.30 L 78.78,18.37 L 78.86,14.85 L 78.90,13.16 L 78.99,10.21 L 79.03,8.82 L 79.13,6.57 L 79.18,5.54 L 79.28,4.13 L 79.44,3.09 L 79.53,2.95 L 80.02,2.70 L 80.32,2.58 L 81.14,2.39 L 82.04,2.21 L 84.47,2.05 L 85.73,2.00 M 95.21,39.27 L 94.93,40.06 L 94.98,39.86 L 95.26,39.10 L 95.55,38.45 M 95.88,37.72 L 95.89,37.71 L 95.97,37.60 M 208.45,35.16 L 208.47,35.22 L 208.39,35.03 M 311.25,18.21 L 318.50,18.50 L 320.66,25.00 L 320.88,25.66 L 321.42,27.31 L 321.70,28.18 L 322.33,30.19 L 322.42,30.45 L 322.22,29.87 L 321.56,27.95 L 321.25,27.13 L 320.65,25.59 L 320.37,24.95 L 319.81,23.74 L 319.54,23.25 L 318.48,21.58 L 317.93,21.09 L 316.79,20.32 L 316.13,20.16 L 314.74,19.96 L 313.89,19.96 L 312.06,20.00 L 310.93,20.00 L 305.72,20.00 L 306.26,25.26 L 307.07,29.96 L 306.58,28.60 L 306.09,27.27 L 305.29,25.09 L 304.92,24.07 L 304.42,22.44 L 304.21,21.69 L 304.04,20.55 L 304.00,20.03 L 304.20,19.29 L 304.34,18.96 L 304.94,18.54 L 305.30,18.36 L 306.33,18.19 L 306.91,18.12 L 308.42,18.12 M 203.43,27.03 L 204.37,28.06 L 205.20,29.24 L 203.02,26.61 M 151.72,28.08 L 152.95,26.67 L 153.13,26.48 M 8.45,28.06 L 8.38,27.77 L 8.37,27.68 M 55.93,27.12 L 56.44,27.40 L 57.53,27.82 L 58.28,27.91 L 59.94,28.00 L 61.13,28.00 L 65.24,27.74 L 67.28,27.29 L 67.99,26.90 L 69.20,26.02 L 69.52,25.40 L 70.00,24.04 L 70.00,23.16 L 69.80,21.74 L 70.54,24.25 L 71.22,28.00 L 63.68,28.00 L 56.13,28.00 L 53.30,23.75 L 54.99,26.12 M 198.07,22.55 L 200.37,24.19 L 201.47,25.05 L 202.53,26.12 L 201.20,24.94 L 197.09,22.01 M 154.02,25.51 L 154.37,25.13 L 154.56,24.99 M 8.08,21.89 L 8.06,23.33 L 8.09,24.51 L 8.00,23.48 L 8.00,21.90 L 8.42,19.64 M 157.54,22.73 L 157.67,22.64 L 157.86,22.51 M 158.47,22.10 L 159.40,21.49 L 159.64,21.38 M 224.75,21.29 L 225.59,21.48 L 225.83,21.54 L 225.58,21.47 L 224.74,21.29 M 224.37,21.26 L 222.97,21.16 L 222.98,21.16 M 179.44,17.61 L 183.08,17.90 L 184.85,18.08 L 188.15,18.71 L 189.76,19.06 L 191.43,19.61 L 189.57,19.13 L 188.51,18.94 L 186.33,18.60 L 185.15,18.48 L 182.70,18.27 L 181.36,18.21 L 178.60,18.13 L 177.08,18.14 L 173.09,18.25 L 170.63,18.43 L 169.50,18.57 L 167.29,18.89 L 166.26,19.12 L 164.26,19.60 L 163.33,19.91 L 160.37,21.07 L 163.32,19.78 L 165.36,19.03 L 169.92,18.10 L 177.50,17.59 M 64.78,12.54 L 66.78,15.17 L 67.71,16.52 L 69.13,19.48 L 69.40,20.39 L 69.18,19.85 L 67.92,17.20 L 67.05,15.84 L 65.19,13.14 L 64.15,11.95 L 63.82,11.61 M 8.53,19.05 L 8.55,18.92 L 8.92,17.47 L 9.38,16.49 M 11.30,13.01 L 10.43,14.30 L 10.87,13.48 L 11.90,12.19 M 20.50,5.48 L 18.56,6.61 L 16.67,7.79 L 15.80,8.46 L 14.12,9.83 L 13.37,10.59 L 11.94,12.14 L 12.75,11.12 L 13.77,9.99 L 16.23,7.99 L 17.53,7.05 L 20.53,5.46 L 22.08,4.72 L 24.84,3.81 M 56.58,6.30 L 56.97,6.53 L 56.09,6.07 M 51.48,4.13 L 53.03,4.77 L 50.88,3.96 M 25.33,3.65 L 25.56,3.58 L 25.57,3.57 M 45.81,2.68 L 45.83,2.69 L 45.77,2.68 M 229.32,80.77 L 229.28,82.00 L 229.32,80.77 M 94.00,55.46 L 94.00,58.08 L 94.00,56.20 M 37.13,45.65 L 39.00,46.03 L 37.13,45.65 Z" fill="rgba(109,192,99,1)"/>
<path d="M 366.54,18.11 L 367.75,18.26 L 368.26,18.37 L 368.76,18.75 L 369.00,19.66 L 369.00,19.72 L 368.94,20.04 L 368.90,20.23 L 368.76,20.80 L 368.60,21.43 L 368.07,23.40 L 367.78,24.49 L 366.99,27.28 L 366.57,28.77 L 365.56,32.29 L 365.02,34.13 L 363.82,38.25 L 363.19,40.38 L 361.83,45.00 L 361.13,47.36 L 359.63,52.37 L 357.27,60.20 L 345.55,99.00 L 336.19,99.00 L 333.97,98.94 L 332.98,98.89 L 331.62,98.73 L 331.04,98.63 L 330.44,98.34 L 330.22,98.18 L 330.26,97.75 L 330.31,97.60 L 330.54,96.93 L 330.67,96.51 L 331.11,95.13 L 331.23,94.73 L 331.54,93.75 L 331.70,93.22 L 332.08,91.98 L 332.29,91.32 L 332.76,89.77 L 333.01,88.96 L 333.59,87.09 L 333.89,86.11 L 334.57,83.87 L 334.93,82.70 L 335.73,80.08 L 336.15,78.71 L 337.08,75.66 L 337.56,74.07 L 338.64,70.56 L 339.19,68.75 L 340.41,64.75 L 341.04,62.68 L 342.42,58.16 L 343.12,55.84 L 344.67,50.76 L 347.19,42.50 L 354.50,18.50 L 361.75,18.21 L 362.54,18.17 L 363.88,18.13 L 364.52,18.12 L 365.56,18.11 Z" fill="rgba(124,128,123,1)"/>
<path d="M 216.64,94.25 L 216.57,93.84 L 216.46,92.38 L 216.40,91.56 L 216.30,89.35 L 216.26,88.17 L 216.18,85.33 L 216.14,83.84 L 216.09,80.49 L 216.06,78.76 L 216.03,75.00 L 216.01,73.09 L 215.99,69.05 L 215.98,64.96 L 216.01,56.43 L 216.03,52.18 L 216.13,44.02 L 216.16,42.04 L 216.23,38.32 L 216.26,36.51 L 216.35,33.20 L 216.39,31.61 L 216.49,28.83 L 216.54,27.52 L 216.65,25.38 L 216.71,24.40 L 216.83,23.02 L 217.04,21.93 L 217.25,21.54 L 217.80,20.97 L 218.12,20.71 L 219.02,20.37 L 219.54,20.23 L 221.00,20.08 L 224.04,20.00 L 224.73,20.00 L 225.88,20.01 L 226.42,20.02 L 227.30,20.06 L 228.11,20.11 L 229.09,20.34 L 229.49,20.49 L 229.84,21.02 L 229.98,22.25 L 229.98,22.94 L 229.77,23.57 L 229.71,23.67 L 229.53,23.65 L 229.22,23.33 L 228.96,22.92 L 227.84,22.23 L 227.21,21.92 L 225.59,21.48 L 224.75,21.29 L 222.98,21.16 L 220.50,21.41 L 218.00,22.04 L 218.00,57.94 L 218.00,60.41 L 218.01,65.18 L 218.02,67.53 L 218.05,72.00 L 218.06,74.19 L 218.10,78.24 L 218.13,80.21 L 218.18,83.76 L 218.21,85.45 L 218.27,88.38 L 218.30,89.76 L 218.37,91.97 L 218.41,92.98 L 218.49,94.37 L 218.61,95.42 L 218.71,95.68 L 219.11,96.11 L 219.34,96.31 L 220.00,96.60 L 220.36,96.74 L 221.27,96.90 L 222.94,97.00 L 223.57,97.00 L 224.65,96.88 L 225.17,96.80 L 226.02,96.46 L 226.42,96.26 L 227.08,95.65 L 227.39,95.29 L 227.88,94.32 L 228.11,93.79 L 228.46,92.40 L 228.62,91.64 L 228.85,89.77 L 228.96,88.77 L 229.12,86.34 L 229.28,82.00 L 229.32,80.72 L 229.38,78.64 L 229.41,77.68 L 229.46,76.27 L 229.48,75.65 L 229.52,74.93 L 229.53,74.66 L 229.57,74.66 L 229.58,74.75 L 229.61,75.47 L 229.63,75.93 L 229.66,77.40 L 229.68,78.24 L 229.72,80.49 L 229.79,84.75 L 230.00,98.00 L 223.63,98.00 L 217.26,98.00 L 216.64,94.25 M 25.27,76.14 L 24.00,75.69 L 21.59,74.64 L 20.41,74.10 L 18.21,72.88 L 17.15,72.25 L 15.19,70.89 L 14.24,70.18 L 12.55,68.69 L 11.74,67.92 L 10.33,66.31 L 9.66,65.50 L 8.55,63.80 L 8.04,62.94 L 7.27,61.18 L 6.49,58.48 L 6.31,57.49 L 6.30,55.99 L 6.36,55.31 L 6.90,54.35 L 7.24,53.92 L 8.42,53.39 L 11.00,52.96 L 12.06,52.88 L 13.88,52.79 L 14.75,52.75 L 16.23,52.74 L 16.93,52.75 L 18.11,52.85 L 18.66,52.91 L 19.59,53.11 L 20.47,53.35 L 21.68,54.22 L 23.07,56.23 L 23.38,56.85 L 24.17,58.00 L 24.59,58.55 L 25.61,59.55 L 26.68,60.51 L 29.44,61.98 L 30.92,62.64 L 34.42,63.46 L 40.41,63.92 L 42.54,63.90 L 46.12,63.57 L 47.81,63.36 L 50.59,62.62 L 51.88,62.19 L 53.95,61.01 L 56.37,58.71 L 56.79,58.15 L 57.34,57.25 L 57.57,56.83 L 57.77,56.07 L 57.83,55.69 L 57.70,54.90 L 57.17,53.48 L 56.80,52.66 L 55.54,51.31 L 55.17,50.99 L 54.22,50.39 L 53.70,50.10 L 52.43,49.54 L 51.75,49.26 L 50.11,48.71 L 49.23,48.43 L 47.15,47.87 L 46.05,47.59 L 43.48,46.99 L 39.00,46.03 L 36.51,45.52 L 32.13,44.52 L 30.04,44.02 L 26.39,43.03 L 24.66,42.52 L 21.67,41.50 L 20.26,40.97 L 17.86,39.87 L 16.72,39.31 L 14.83,38.11 L 13.94,37.49 L 12.48,36.13 L 11.80,35.44 L 10.70,33.90 L 9.38,31.36 L 8.91,30.25 L 8.35,27.58 L 8.13,26.21 L 8.06,23.33 L 8.08,21.89 L 8.49,19.17 L 9.64,15.70 L 10.12,14.76 L 11.30,13.01 L 11.92,12.15 L 13.37,10.59 L 14.12,9.83 L 15.80,8.46 L 16.67,7.79 L 18.56,6.61 L 20.50,5.48 L 24.86,3.80 L 27.11,3.07 L 31.93,2.22 L 34.38,1.90 L 39.42,1.90 L 41.95,2.01 L 46.99,2.89 L 49.49,3.44 L 54.29,5.24 L 55.46,5.74 L 57.73,6.93 L 60.98,8.98 L 62.02,9.73 L 64.15,11.95 L 65.19,13.14 L 67.05,15.84 L 67.92,17.20 L 69.18,19.85 L 69.44,20.48 L 69.78,21.64 L 70.00,23.16 L 70.00,24.04 L 69.52,25.40 L 69.20,26.02 L 67.99,26.90 L 67.28,27.29 L 65.24,27.74 L 61.13,28.00 L 59.94,28.00 L 58.28,27.91 L 57.53,27.82 L 56.44,27.40 L 55.93,27.12 L 54.99,26.12 L 53.30,23.75 L 52.36,22.35 L 50.32,20.17 L 49.25,19.18 L 46.82,17.77 L 45.53,17.15 L 42.53,16.42 L 37.20,16.00 L 36.02,16.00 L 33.86,16.16 L 32.82,16.26 L 30.97,16.63 L 30.09,16.83 L 28.55,17.38 L 27.83,17.68 L 26.63,18.40 L 26.08,18.79 L 25.24,19.68 L 24.86,20.15 L 24.39,21.19 L 24.20,21.73 L 24.12,22.92 L 24.45,24.85 L 24.66,25.49 L 25.64,26.58 L 25.96,26.84 L 26.82,27.36 L 27.30,27.62 L 28.53,28.14 L 29.20,28.40 L 30.88,28.96 L 31.78,29.24 L 33.96,29.86 L 35.12,30.17 L 37.87,30.88 L 42.73,32.06 L 44.68,32.52 L 48.13,33.39 L 49.78,33.82 L 52.70,34.65 L 54.10,35.07 L 56.55,35.89 L 57.73,36.30 L 59.78,37.13 L 60.76,37.55 L 62.49,38.43 L 63.31,38.87 L 64.77,39.82 L 68.44,43.06 L 69.58,44.33 L 71.32,47.01 L 72.09,48.37 L 73.06,51.19 L 73.45,52.62 L 73.65,55.54 L 73.07,59.98 L 72.63,61.63 L 71.40,64.45 L 70.71,65.80 L 68.86,68.15 L 67.85,69.28 L 65.25,71.30 L 60.37,74.14 L 59.60,74.52 L 58.26,75.15 L 57.61,75.45 L 56.44,75.93 L 55.28,76.39 L 52.99,76.95 L 52.38,77.07 L 51.02,77.25 L 50.31,77.33 L 48.67,77.45 L 47.80,77.50 L 45.76,77.58 L 42.12,77.69 L 40.96,77.72 L 38.91,77.75 L 37.92,77.76 L 36.16,77.75 L 34.47,77.73 L 31.78,77.55 L 30.52,77.44 L 28.36,77.03 L 27.31,76.80 M 49.31,75.42 L 50.67,75.01 L 53.02,74.27 L 54.14,73.91 L 56.05,73.25 L 56.97,72.93 L 58.53,72.32 L 59.28,72.02 L 60.56,71.42 L 61.80,70.82 L 63.74,69.49 L 66.47,67.03 L 67.29,66.19 L 68.48,64.80 L 69.00,64.13 L 69.71,62.83 L 70.02,62.17 L 70.40,60.65 L 70.77,57.76 L 70.92,56.00 L 70.70,52.87 L 70.50,51.37 L 69.57,48.72 L 69.01,47.44 L 67.33,45.15 L 63.91,42.05 L 62.82,41.26 L 59.91,39.72 L 58.36,38.96 L 54.78,37.57 L 52.93,36.91 L 48.98,35.79 L 43.00,34.53 L 41.19,34.25 L 37.90,33.57 L 36.32,33.22 L 33.49,32.41 L 32.14,31.99 L 29.79,31.05 L 28.68,30.57 L 26.81,29.52 L 25.94,28.97 L 24.57,27.80 L 23.95,27.20 L 23.08,25.93 L 22.71,25.27 L 22.35,23.89 L 22.40,21.71 L 22.58,20.83 L 23.49,18.96 L 25.20,16.86 L 25.55,16.59 L 26.54,16.11 L 27.07,15.88 L 28.35,15.49 L 29.71,15.12 L 33.06,14.65 L 34.80,14.47 L 38.53,14.42 L 43.99,14.89 L 45.22,15.09 L 47.05,15.52 L 47.91,15.76 L 49.32,16.48 L 50.02,16.90 L 51.43,18.14 L 53.99,20.89 L 54.50,21.47 L 55.38,22.44 L 55.80,22.89 L 56.54,23.64 L 57.25,24.33 L 58.45,25.18 L 59.05,25.53 L 60.31,25.85 L 62.69,26.00 L 63.84,26.00 L 65.84,25.70 L 66.27,25.61 L 66.94,25.38 L 67.51,24.98 L 67.76,24.57 L 67.83,23.45 L 67.79,22.85 L 67.34,21.43 L 67.05,20.69 L 66.17,19.06 L 65.68,18.23 L 64.44,16.51 L 63.78,15.65 L 62.27,13.95 L 61.49,13.10 L 59.79,11.52 L 58.92,10.75 L 57.11,9.39 L 54.36,7.72 L 52.90,6.99 L 49.59,5.71 L 47.91,5.11 L 44.47,4.19 L 42.78,3.78 L 39.65,3.32 L 38.91,3.23 L 37.55,3.17 L 35.77,3.25 L 34.29,3.43 L 30.85,4.28 L 29.10,4.78 L 25.51,6.10 L 23.75,6.79 L 20.59,8.35 L 19.85,8.74 L 18.55,9.53 L 16.94,10.70 L 16.18,11.34 L 14.86,12.68 L 14.23,13.36 L 13.16,14.77 L 12.16,16.19 L 10.92,19.15 L 10.43,20.64 L 10.16,23.66 L 10.15,25.16 L 10.82,28.10 L 11.27,29.54 L 12.83,32.28 L 13.72,33.61 L 16.14,36.01 L 17.46,37.16 L 20.70,39.10 L 26.43,41.35 L 28.48,41.93 L 32.18,42.90 L 33.96,43.35 L 37.03,44.04 L 38.48,44.35 L 40.82,44.75 L 43.39,45.00 L 44.29,45.00 L 46.63,45.48 L 47.85,45.78 L 50.44,46.70 L 51.73,47.20 L 54.07,48.38 L 56.72,50.21 L 57.54,50.98 L 58.53,52.84 L 58.91,53.80 L 59.04,55.89 L 58.99,56.94 L 58.26,59.03 L 56.22,61.94 L 55.62,62.54 L 53.97,63.58 L 53.08,64.07 L 50.97,64.88 L 49.86,65.25 L 47.42,65.82 L 46.17,66.07 L 43.55,66.38 L 42.23,66.51 L 39.56,66.55 L 38.23,66.54 L 35.66,66.30 L 34.40,66.14 L 32.07,65.61 L 29.00,64.46 L 28.65,64.29 L 27.69,63.61 L 27.18,63.23 L 26.00,62.22 L 22.30,58.60 L 21.83,58.08 L 21.00,57.20 L 20.61,56.79 L 19.91,56.11 L 19.24,55.49 L 18.05,54.73 L 17.46,54.42 L 16.13,54.13 L 13.53,54.00 L 12.83,54.00 L 11.65,54.07 L 11.09,54.12 L 10.20,54.30 L 9.79,54.41 L 9.18,54.72 L 8.91,54.90 L 8.57,55.36 L 8.43,55.61 L 8.34,56.24 L 8.33,56.58 L 8.49,57.40 L 8.60,57.83 L 8.99,58.86 L 9.84,60.65 L 10.66,62.25 L 12.67,65.02 L 13.73,66.34 L 16.31,68.62 L 17.68,69.71 L 20.93,71.59 L 26.70,74.05 L 28.97,74.85 L 33.04,75.93 L 35.01,76.38 L 38.68,76.77 L 40.49,76.87 L 43.99,76.59 L 45.74,76.36 M 167.00,77.35 L 165.89,76.99 L 163.21,75.79 L 161.83,75.15 L 159.03,73.61 L 157.66,72.84 L 155.26,71.27 L 154.71,70.89 L 153.78,70.17 L 152.70,69.20 L 151.48,67.94 L 149.58,65.12 L 148.71,63.65 L 147.44,60.31 L 146.88,58.55 L 146.21,54.51 L 146.07,53.45 L 145.90,51.16 L 145.79,47.48 L 145.79,46.12 L 145.87,43.68 L 145.92,42.50 L 146.14,40.36 L 146.27,39.33 L 146.65,37.44 L 146.86,36.52 L 147.42,34.83 L 148.02,33.17 L 149.87,30.19 L 153.73,25.79 L 155.16,24.41 L 158.20,22.27 L 159.78,21.30 L 163.33,19.91 L 164.26,19.60 L 166.26,19.12 L 167.29,18.89 L 169.50,18.57 L 170.63,18.43 L 173.09,18.25 L 177.08,18.14 L 178.60,18.13 L 181.36,18.21 L 182.70,18.27 L 185.15,18.48 L 186.33,18.60 L 188.51,18.94 L 189.57,19.13 L 191.52,19.63 L 193.42,20.17 L 196.70,21.74 L 201.20,24.94 L 202.83,26.38 L 205.38,29.46 L 206.54,31.05 L 208.22,34.60 L 208.59,35.52 L 209.18,37.50 L 209.45,38.51 L 209.85,40.67 L 210.02,41.78 L 210.24,44.16 L 210.38,48.00 L 210.39,49.31 L 210.27,51.75 L 210.19,52.95 L 209.90,55.20 L 209.56,57.39 L 208.33,61.23 L 207.62,63.07 L 205.62,66.29 L 201.69,70.54 L 200.12,71.88 L 196.82,73.97 L 195.13,74.92 L 191.42,76.28 L 189.49,76.87 L 185.16,77.56 L 184.02,77.70 L 181.60,77.85 L 177.71,77.92 L 176.45,77.91 L 174.02,77.85 L 172.84,77.82 L 170.77,77.72 L 169.79,77.67 L 168.31,77.55 L 167.66,77.48 M 187.19,75.18 L 189.42,74.45 L 193.26,72.81 L 195.08,71.96 L 198.14,70.07 L 199.59,69.08 L 201.94,66.89 L 204.72,63.22 L 205.36,62.13 L 206.24,60.37 L 206.62,59.49 L 207.07,57.61 L 207.16,57.10 L 207.30,55.92 L 207.35,55.30 L 207.43,53.85 L 207.46,53.08 L 207.49,51.25 L 207.50,48.00 L 207.50,46.80 L 207.49,44.77 L 207.47,43.80 L 207.43,42.18 L 207.40,41.41 L 207.30,40.11 L 207.24,39.49 L 207.08,38.43 L 206.89,37.40 L 206.26,35.69 L 204.80,32.91 L 204.17,31.83 L 202.73,29.88 L 201.98,28.94 L 200.31,27.26 L 199.45,26.45 L 197.54,25.04 L 196.56,24.37 L 194.43,23.23 L 193.34,22.69 L 190.97,21.82 L 189.76,21.41 L 187.16,20.81 L 185.83,20.54 L 183.01,20.20 L 178.50,20.00 L 176.75,20.00 L 173.44,20.24 L 171.82,20.39 L 168.78,20.94 L 167.30,21.26 L 164.56,22.11 L 163.22,22.58 L 160.78,23.74 L 159.59,24.35 L 157.45,25.81 L 156.41,26.57 L 154.58,28.33 L 153.70,29.24 L 152.19,31.28 L 150.30,34.66 L 149.73,35.90 L 148.96,37.89 L 148.63,38.86 L 148.25,40.81 L 148.11,41.83 L 148.04,44.35 L 148.03,45.05 L 148.07,46.66 L 148.18,49.49 L 148.22,50.51 L 148.32,52.27 L 148.37,53.11 L 148.49,54.56 L 148.62,55.93 L 149.02,58.04 L 149.26,59.02 L 149.98,60.78 L 151.58,63.63 L 152.41,64.98 L 154.34,67.26 L 155.37,68.34 L 157.86,70.20 L 159.20,71.10 L 162.47,72.69 L 163.35,73.08 L 165.29,73.84 L 168.50,74.95 L 170.40,75.56 L 173.66,76.34 L 175.23,76.66 L 178.11,76.84 L 179.54,76.86 L 182.43,76.45 L 183.91,76.18 M 238.35,76.19 L 237.32,75.77 L 235.26,74.67 L 234.26,74.10 L 232.53,72.90 L 231.75,72.31 L 230.73,71.29 L 230.54,71.06 L 230.35,70.68 L 230.40,70.26 L 230.46,70.21 L 231.06,70.35 L 231.44,70.45 L 232.56,70.87 L 233.17,71.11 L 234.66,71.76 L 237.16,72.91 L 238.28,73.45 L 240.36,74.36 L 241.38,74.78 L 243.28,75.45 L 245.15,76.07 L 248.59,76.62 L 250.30,76.78 L 253.73,76.46 L 259.33,75.06 L 260.46,74.68 L 262.48,73.93 L 263.45,73.56 L 265.17,72.80 L 266.83,72.03 L 269.44,70.30 L 270.65,69.39 L 272.62,67.20 L 275.20,63.13 L 275.81,61.96 L 276.67,60.03 L 277.04,59.08 L 277.52,57.19 L 277.71,56.20 L 277.91,53.81 L 277.94,53.15 L 277.98,51.66 L 278.00,49.06 L 278.00,47.16 L 277.79,43.71 L 277.65,42.03 L 277.15,39.01 L 276.86,37.55 L 276.05,34.94 L 275.60,33.68 L 274.46,31.43 L 273.85,30.35 L 272.36,28.44 L 271.57,27.53 L 269.72,25.94 L 268.75,25.17 L 266.51,23.85 L 262.71,22.15 L 260.69,21.40 L 256.47,20.49 L 254.34,20.13 L 250.02,19.99 L 247.87,20.03 L 243.62,20.67 L 237.50,22.52 L 236.67,22.86 L 235.14,23.48 L 234.40,23.77 L 233.15,24.27 L 232.58,24.49 L 231.75,24.80 L 231.13,25.00 L 230.96,25.00 L 230.86,24.86 L 230.85,24.77 L 231.03,24.47 L 231.28,24.14 L 232.43,23.16 L 233.08,22.65 L 234.75,21.54 L 237.40,20.05 L 238.20,19.66 L 240.16,19.04 L 241.19,18.76 L 243.52,18.34 L 244.71,18.16 L 247.28,17.94 L 248.59,17.86 L 251.27,17.84 L 253.95,17.87 L 259.11,18.53 L 260.34,18.74 L 262.58,19.31 L 265.50,20.38 L 266.81,21.00 L 269.15,22.40 L 270.27,23.12 L 272.25,24.75 L 273.19,25.59 L 274.82,27.47 L 275.59,28.44 L 276.87,30.60 L 277.48,31.72 L 278.44,34.18 L 278.89,35.45 L 279.55,38.25 L 279.84,39.69 L 280.20,42.84 L 280.43,48.00 L 280.43,48.98 L 280.42,50.70 L 280.40,51.52 L 280.35,52.98 L 280.29,54.39 L 280.02,56.64 L 279.85,57.70 L 279.33,59.60 L 278.18,62.50 L 277.56,63.86 L 276.16,66.30 L 275.43,67.47 L 273.79,69.52 L 272.94,70.51 L 271.06,72.20 L 270.08,73.00 L 267.92,74.34 L 266.80,74.97 L 264.35,75.97 L 263.08,76.43 L 260.31,77.10 L 258.88,77.40 L 255.77,77.76 L 250.71,77.94 L 249.39,77.94 L 246.92,77.81 L 245.72,77.73 L 243.55,77.47 L 242.50,77.32 L 240.67,76.92 L 239.80,76.71 M 126.53,74.27 L 126.48,74.08 L 126.39,73.42 L 126.35,73.05 L 126.27,72.05 L 126.23,71.51 L 126.15,70.23 L 126.12,69.55 L 126.06,68.03 L 126.00,66.45 L 125.92,62.77 L 125.88,56.85 L 125.88,55.15 L 125.88,52.30 L 125.87,50.96 L 125.84,48.74 L 125.82,47.69 L 125.74,45.99 L 125.70,45.20 L 125.56,43.90 L 125.49,43.30 L 125.29,42.31 L 125.18,41.84 L 124.89,41.04 L 123.67,38.83 L 123.16,38.07 L 121.91,36.72 L 121.25,36.08 L 119.75,34.99 L 118.97,34.47 L 117.26,33.64 L 116.39,33.26 L 114.53,32.71 L 113.58,32.47 L 111.61,32.21 L 110.61,32.11 L 108.58,32.15 L 107.57,32.21 L 105.52,32.56 L 102.50,33.45 L 101.50,33.83 L 99.84,34.55 L 99.07,34.91 L 97.81,35.71 L 97.22,36.14 L 96.31,37.16 L 95.89,37.71 L 95.26,39.10 L 94.98,39.86 L 94.59,41.76 L 94.42,42.79 L 94.21,45.35 L 94.12,46.73 L 94.04,50.09 L 94.00,56.20 L 94.00,58.47 L 93.92,62.66 L 93.87,64.68 L 93.70,68.12 L 93.66,68.92 L 93.55,70.32 L 93.50,70.98 L 93.38,72.09 L 93.31,72.59 L 93.18,73.35 L 92.96,74.07 L 92.76,74.45 L 92.22,75.02 L 91.91,75.27 L 91.05,75.61 L 90.57,75.76 L 89.24,75.92 L 86.52,76.00 L 85.04,76.00 L 82.52,75.70 L 81.97,75.61 L 81.16,75.38 L 80.49,74.98 L 80.32,74.70 L 79.79,74.42 L 79.00,74.50 L 78.92,74.55 L 78.78,73.89 L 78.71,73.45 L 78.61,71.90 L 78.56,71.02 L 78.48,68.71 L 78.45,67.46 L 78.40,64.51 L 78.38,62.96 L 78.36,59.50 L 78.36,57.72 L 78.36,53.88 L 78.38,49.96 L 78.48,41.54 L 78.53,37.32 L 78.71,29.05 L 78.76,27.04 L 78.87,23.23 L 78.93,21.37 L 79.05,17.95 L 79.12,16.30 L 79.25,13.40 L 79.32,12.03 L 79.47,9.78 L 79.55,8.75 L 79.71,7.28 L 79.95,6.08 L 80.18,5.67 L 80.72,5.05 L 81.02,4.78 L 81.82,4.41 L 82.27,4.26 L 83.50,4.09 L 85.98,4.00 L 86.82,4.00 L 88.25,4.11 L 88.93,4.18 L 90.06,4.47 L 90.59,4.64 L 91.46,5.16 L 91.87,5.46 L 92.50,6.26 L 92.80,6.70 L 93.23,7.83 L 93.42,8.44 L 93.69,9.95 L 93.80,10.75 L 93.93,12.69 L 94.00,16.11 L 94.00,23.78 L 97.55,21.98 L 98.52,21.48 L 100.43,20.38 L 100.87,20.12 L 101.60,19.65 L 102.39,19.10 L 102.56,18.95 L 103.52,18.67 L 104.08,18.53 L 105.64,18.30 L 106.48,18.19 L 108.46,18.04 L 111.66,17.91 L 113.22,17.88 L 115.78,17.95 L 116.99,18.01 L 119.07,18.28 L 120.07,18.44 L 121.95,18.95 L 124.86,20.03 L 126.36,20.68 L 129.33,22.62 L 130.78,23.67 L 133.43,26.21 L 134.69,27.52 L 136.75,30.37 L 138.89,34.67 L 139.00,35.01 L 139.21,35.98 L 139.31,36.51 L 139.51,37.82 L 139.61,38.52 L 139.79,40.13 L 139.88,40.96 L 140.04,42.81 L 140.20,44.70 L 140.45,48.98 L 140.57,51.16 L 140.73,55.69 L 140.80,57.94 L 140.85,62.28 L 140.87,64.38 L 140.80,68.10 L 140.78,68.97 L 140.70,70.51 L 140.66,71.25 L 140.56,72.49 L 140.50,73.07 L 140.35,73.96 L 140.10,74.82 L 139.85,75.28 L 139.28,75.94 L 138.97,76.24 L 138.08,76.61 L 137.58,76.76 L 136.14,76.92 L 133.07,77.00 L 132.38,77.00 L 131.23,76.99 L 130.69,76.98 L 129.80,76.94 L 128.98,76.88 L 127.97,76.60 L 127.54,76.42 L 127.05,75.79 L 126.84,75.41 M 89.80,73.80 L 89.90,73.70 L 90.09,73.29 L 90.18,73.06 L 90.34,72.38 L 90.41,72.01 L 90.54,71.05 L 90.60,70.54 L 90.71,69.30 L 90.76,68.64 L 90.84,67.11 L 90.87,66.30 L 90.93,64.46 L 90.95,63.50 L 90.98,61.35 L 91.00,57.77 L 91.00,55.66 L 91.05,52.07 L 91.08,50.36 L 91.21,47.47 L 91.30,46.11 L 91.55,43.82 L 91.69,42.74 L 92.10,40.93 L 92.32,40.08 L 92.90,38.63 L 93.21,37.95 L 94.00,36.76 L 94.42,36.19 L 95.45,35.14 L 97.29,33.59 L 98.02,33.04 L 99.35,32.23 L 100.03,31.86 L 101.51,31.36 L 102.31,31.14 L 104.28,30.86 L 108.14,30.58 L 109.26,30.53 L 111.26,30.51 L 112.22,30.51 L 113.94,30.62 L 114.78,30.69 L 116.26,30.95 L 116.98,31.10 L 118.28,31.51 L 119.54,31.97 L 121.67,33.43 L 124.62,36.56 L 125.33,37.50 L 126.28,39.00 L 126.49,39.40 L 126.81,40.29 L 126.95,40.77 L 127.17,41.94 L 127.28,42.57 L 127.42,44.17 L 127.49,45.04 L 127.59,47.22 L 127.63,48.40 L 127.71,51.33 L 127.82,56.72 L 127.86,58.73 L 127.93,62.05 L 127.96,63.60 L 128.04,66.09 L 128.08,67.25 L 128.19,69.04 L 128.25,69.87 L 128.40,71.09 L 128.49,71.65 L 128.71,72.44 L 128.83,72.79 L 129.14,73.27 L 130.49,74.18 L 131.14,74.47 L 132.92,74.75 L 135.43,74.61 L 138.00,73.96 L 138.00,57.16 L 138.00,55.55 L 137.98,52.68 L 137.97,51.30 L 137.92,48.87 L 137.89,47.70 L 137.81,45.63 L 137.77,44.65 L 137.65,42.91 L 137.53,41.25 L 137.15,38.69 L 136.37,35.59 L 135.80,33.91 L 134.12,30.91 L 133.20,29.48 L 130.91,26.98 L 129.70,25.80 L 126.91,23.85 L 125.46,22.95 L 122.29,21.59 L 120.67,20.99 L 117.23,20.26 L 115.49,19.98 L 111.91,19.93 L 110.11,19.99 L 106.49,20.65 L 101.15,22.51 L 99.99,23.05 L 98.05,23.89 L 97.13,24.26 L 95.65,24.72 L 94.95,24.91 L 93.86,24.96 L 93.35,24.93 L 92.59,24.52 L 92.25,24.25 L 91.76,23.33 L 91.55,22.80 L 91.28,21.33 L 91.17,20.52 L 91.06,18.45 L 91.00,14.62 L 91.00,13.55 L 90.91,11.60 L 90.86,10.66 L 90.67,9.07 L 90.56,8.33 L 90.29,7.21 L 89.80,6.20 L 89.41,5.81 L 88.18,5.33 L 87.51,5.14 L 86.00,5.04 L 85.24,5.04 L 83.82,5.33 L 82.20,6.20 L 82.09,6.31 L 81.90,7.22 L 81.80,7.79 L 81.64,9.53 L 81.56,10.49 L 81.42,12.93 L 81.35,14.23 L 81.23,17.25 L 81.18,18.82 L 81.09,22.29 L 81.05,24.08 L 80.99,27.89 L 80.94,31.76 L 80.91,40.00 L 80.91,44.12 L 80.99,52.11 L 81.02,54.05 L 81.09,57.71 L 81.13,59.49 L 81.23,62.75 L 81.29,64.33 L 81.42,67.07 L 81.48,68.37 L 81.64,70.47 L 81.72,71.43 L 81.90,72.78 L 82.20,73.80 L 82.59,74.19 L 83.82,74.67 L 84.49,74.86 L 86.00,74.96 L 86.76,74.96 L 88.18,74.67 L 88.84,74.48 M 286.67,75.33 L 286.62,75.29 L 286.53,74.49 L 286.49,73.98 L 286.41,72.33 L 286.37,71.41 L 286.29,69.01 L 286.26,67.72 L 286.20,64.66 L 286.17,63.06 L 286.11,59.44 L 286.09,57.56 L 286.05,53.48 L 286.04,51.38 L 286.01,46.93 L 286.00,39.94 L 286.00,37.51 L 286.00,33.13 L 285.99,31.02 L 285.99,27.23 L 285.99,25.41 L 286.00,22.19 L 286.00,20.64 L 286.03,17.92 L 286.05,16.63 L 286.11,14.38 L 286.14,13.31 L 286.24,11.48 L 286.29,10.62 L 286.44,9.18 L 286.52,8.50 L 286.72,7.39 L 286.83,6.88 L 287.10,6.06 L 287.24,5.69 L 287.58,5.12 L 287.95,4.61 L 288.95,4.15 L 289.50,3.98 L 290.92,3.95 L 293.61,4.00 L 294.57,4.00 L 295.96,4.09 L 296.58,4.16 L 297.44,4.45 L 297.83,4.63 L 298.36,5.23 L 299.02,6.57 L 299.11,6.79 L 299.26,7.88 L 299.33,8.52 L 299.46,10.38 L 299.53,11.39 L 299.63,13.89 L 299.69,15.21 L 299.77,18.25 L 299.81,19.82 L 299.88,23.28 L 299.91,25.05 L 299.95,28.81 L 299.99,32.63 L 300.01,40.70 L 300.00,44.73 L 299.93,52.53 L 299.91,54.42 L 299.85,58.00 L 299.81,59.75 L 299.73,62.95 L 299.69,64.49 L 299.59,67.20 L 299.53,68.48 L 299.41,70.59 L 299.35,71.55 L 299.20,72.93 L 298.96,74.07 L 298.76,74.45 L 298.22,75.02 L 297.92,75.27 L 297.07,75.61 L 296.59,75.76 L 295.28,75.91 L 292.63,76.00 L 291.17,76.00 L 288.69,75.80 L 288.15,75.74 L 287.34,75.59 L 286.99,75.51 M 296.42,74.39 L 296.59,74.33 L 296.89,73.99 L 297.03,73.77 L 297.26,72.99 L 297.36,72.53 L 297.53,71.15 L 297.61,70.36 L 297.73,68.19 L 297.79,66.99 L 297.87,63.85 L 297.89,63.00 L 297.91,61.08 L 297.93,60.08 L 297.95,57.87 L 297.96,56.72 L 297.97,54.18 L 297.98,52.86 L 297.99,49.98 L 297.99,48.49 L 298.00,45.23 L 298.00,39.91 L 298.00,6.04 L 295.43,5.39 L 294.72,5.21 L 292.90,5.26 L 290.43,5.85 L 288.00,6.96 L 288.00,40.41 L 288.00,42.34 L 288.00,45.89 L 288.00,47.61 L 288.01,50.75 L 288.01,52.27 L 288.02,55.01 L 288.03,56.34 L 288.05,58.73 L 288.05,59.88 L 288.08,61.93 L 288.09,62.91 L 288.13,64.65 L 288.14,65.48 L 288.19,66.94 L 288.21,67.63 L 288.27,68.83 L 288.33,69.97 L 288.48,71.57 L 288.57,72.28 L 288.79,73.20 L 288.91,73.58 L 289.21,74.00 L 289.75,74.31 L 291.12,74.67 L 293.47,74.87 L 294.58,74.88 M 321.75,74.92 L 321.27,74.64 L 320.51,73.73 L 320.00,72.30 L 320.00,72.08 L 319.85,71.24 L 319.75,70.77 L 319.44,69.53 L 318.09,65.10 L 317.83,64.33 L 317.18,62.34 L 316.84,61.28 L 316.10,58.94 L 315.73,57.76 L 315.00,55.35 L 314.00,52.00 L 313.51,50.31 L 312.69,47.49 L 312.30,46.17 L 311.66,43.98 L 311.36,42.96 L 310.86,41.30 L 310.63,40.52 L 310.23,39.26 L 309.85,38.08 L 309.25,36.41 L 308.28,34.01 L 308.08,33.53 L 307.67,32.24 L 307.46,31.56 L 307.08,30.00 L 306.26,25.26 L 305.72,20.00 L 310.93,20.00 L 312.06,20.00 L 313.89,19.96 L 314.74,19.96 L 316.13,20.16 L 316.79,20.32 L 317.93,21.09 L 318.48,21.58 L 319.54,23.25 L 319.81,23.74 L 320.37,24.95 L 320.65,25.59 L 321.25,27.13 L 321.56,27.95 L 322.22,29.87 L 322.56,30.88 L 323.32,33.22 L 323.71,34.45 L 324.57,37.25 L 325.02,38.71 L 326.02,42.01 L 326.54,43.73 L 327.69,47.58 L 329.62,54.00 L 330.22,55.99 L 331.32,59.93 L 331.84,61.85 L 332.71,65.34 L 332.91,66.17 L 333.25,67.67 L 333.40,68.39 L 333.65,69.65 L 333.76,70.24 L 333.91,71.20 L 334.00,72.25 L 334.00,76.00 L 328.75,75.97 L 327.31,75.96 L 324.53,75.65 L 323.89,75.55 L 322.84,75.32 L 322.37,75.19 M 332.00,71.74 L 332.00,71.49 L 331.84,70.53 L 331.74,69.99 L 331.39,68.51 L 331.20,67.71 L 330.69,65.78 L 330.42,64.77 L 329.77,62.48 L 329.43,61.30 L 328.68,58.72 L 328.29,57.41 L 327.45,54.63 L 326.59,51.83 L 324.74,45.95 L 323.80,43.02 L 321.95,37.38 L 321.49,36.02 L 320.62,33.46 L 320.19,32.21 L 319.38,29.93 L 318.99,28.83 L 318.29,26.91 L 317.95,26.01 L 317.36,24.54 L 317.09,23.87 L 316.65,22.93 L 316.20,22.21 L 315.55,21.72 L 313.91,21.24 L 313.07,21.08 L 311.37,21.21 L 310.56,21.34 L 309.25,22.00 L 308.96,22.19 L 308.55,22.67 L 308.21,23.50 L 308.20,23.63 L 308.32,24.38 L 308.40,24.83 L 308.71,26.17 L 308.88,26.90 L 309.35,28.73 L 309.60,29.70 L 310.20,31.94 L 310.51,33.11 L 311.22,35.67 L 311.59,36.99 L 312.38,39.78 L 313.18,42.62 L 314.94,48.64 L 315.82,51.64 L 317.57,57.45 L 318.00,58.86 L 318.82,61.51 L 319.22,62.81 L 319.97,65.18 L 320.33,66.32 L 320.98,68.30 L 321.29,69.24 L 321.82,70.77 L 322.07,71.46 L 322.44,72.43 L 322.82,73.17 L 323.03,73.38 L 324.18,73.76 L 324.83,73.93 L 326.47,74.18 L 327.31,74.29 L 328.92,74.35 L 330.75,74.17 L 331.09,74.07 L 331.63,73.30 L 331.86,72.86 M 238.77,64.69 L 237.76,64.22 L 235.70,62.80 L 234.68,62.04 L 232.81,60.24 L 231.92,59.31 L 230.48,57.37 L 229.07,54.59 L 228.92,54.13 L 228.73,52.87 L 228.65,52.19 L 228.58,50.58 L 228.88,45.10 L 229.06,43.66 L 229.42,41.55 L 229.63,40.59 L 230.21,39.11 L 230.55,38.41 L 231.56,37.10 L 233.80,34.85 L 234.62,34.08 L 236.00,32.95 L 236.66,32.45 L 237.85,31.78 L 238.45,31.49 L 239.66,31.18 L 241.71,31.02 L 242.41,31.02 L 243.41,31.07 L 243.85,31.11 L 244.33,31.24 L 244.51,31.32 L 244.51,31.54 L 244.00,32.00 L 243.59,32.27 L 242.44,32.69 L 240.78,32.98 L 240.45,32.99 L 239.64,33.25 L 239.22,33.41 L 238.29,33.96 L 237.34,34.56 L 235.34,36.36 L 234.36,37.33 L 232.65,39.50 L 230.95,42.65 L 230.61,43.68 L 230.32,46.08 L 230.24,47.31 L 230.43,49.91 L 230.59,51.20 L 231.23,53.70 L 232.67,57.02 L 233.27,58.03 L 234.96,59.73 L 235.87,60.52 L 238.07,61.77 L 239.22,62.34 L 241.79,63.14 L 243.10,63.48 L 245.88,63.82 L 247.27,63.92 L 250.10,63.78 L 251.50,63.65 L 254.22,63.01 L 255.55,62.63 L 258.00,61.50 L 261.23,59.21 L 262.28,58.23 L 263.81,55.96 L 264.49,54.79 L 265.31,52.24 L 265.64,50.95 L 265.78,48.28 L 265.78,46.94 L 265.28,44.30 L 264.96,43.00 L 263.86,40.54 L 263.24,39.34 L 261.58,37.21 L 260.68,36.21 L 258.49,34.56 L 254.66,32.81 L 253.69,32.52 L 252.45,32.13 L 251.94,31.95 L 251.55,31.72 L 251.46,31.61 L 251.86,31.45 L 253.28,31.22 L 254.25,31.10 L 256.48,31.49 L 257.62,31.77 L 259.92,32.84 L 261.04,33.44 L 263.02,35.00 L 265.26,37.65 L 265.96,38.87 L 266.93,41.74 L 267.34,43.22 L 267.72,46.40 L 267.83,47.99 L 267.60,51.15 L 266.54,55.55 L 266.22,56.39 L 265.45,57.89 L 265.04,58.62 L 264.09,59.90 L 263.59,60.52 L 262.44,61.59 L 261.84,62.10 L 260.47,62.97 L 259.76,63.38 L 258.17,64.05 L 257.34,64.37 L 255.50,64.85 L 254.55,65.07 L 252.45,65.38 L 249.00,65.66 L 247.85,65.70 L 245.70,65.69 L 244.65,65.67 L 242.79,65.53 L 241.90,65.45 L 240.43,65.20 L 239.75,65.05 M 167.11,63.37 L 166.29,62.96 L 164.84,62.06 L 164.14,61.59 L 162.93,60.57 L 162.35,60.04 L 161.37,58.87 L 160.91,58.27 L 160.15,56.96 L 159.80,56.28 L 159.26,54.81 L 159.02,54.05 L 158.69,52.41 L 158.55,51.56 L 158.43,49.74 L 158.48,46.78 L 158.59,45.10 L 159.11,42.27 L 159.43,40.92 L 160.42,38.65 L 160.98,37.57 L 162.52,35.72 L 165.51,33.27 L 166.12,32.87 L 167.76,32.20 L 168.64,31.89 L 170.69,31.42 L 171.76,31.20 L 174.08,30.91 L 175.26,30.79 L 177.70,30.70 L 178.92,30.68 L 181.32,30.78 L 182.51,30.86 L 184.73,31.16 L 185.81,31.33 L 187.70,31.83 L 190.01,32.82 L 191.33,33.61 L 193.36,35.39 L 194.29,36.34 L 195.60,38.59 L 196.17,39.79 L 196.85,42.70 L 196.98,43.48 L 197.15,45.19 L 197.26,48.02 L 197.27,48.99 L 197.22,50.69 L 197.18,51.51 L 197.02,52.96 L 196.83,54.35 L 196.01,56.59 L 195.51,57.66 L 193.91,59.59 L 193.45,60.08 L 192.36,61.07 L 190.42,62.63 L 189.64,63.22 L 188.28,64.07 L 187.60,64.44 L 186.13,64.94 L 185.34,65.15 L 183.38,65.40 L 179.44,65.62 L 177.91,65.67 L 175.52,65.64 L 174.40,65.60 L 172.54,65.34 L 171.64,65.17 L 169.92,64.62 L 169.05,64.29 M 189.06,61.31 L 190.17,60.65 L 192.07,58.65 L 192.95,57.56 L 194.30,54.94 L 194.89,53.57 L 195.55,50.62 L 195.62,46.17 L 195.48,45.16 L 195.02,43.28 L 194.76,42.36 L 194.05,40.70 L 193.67,39.89 L 192.72,38.44 L 192.22,37.75 L 191.04,36.52 L 190.42,35.94 L 189.02,34.95 L 188.28,34.48 L 186.65,33.72 L 185.81,33.37 L 183.96,32.85 L 180.94,32.34 L 179.63,32.20 L 177.15,32.17 L 175.94,32.19 L 173.69,32.47 L 172.59,32.64 L 170.56,33.21 L 169.58,33.54 L 167.80,34.40 L 166.95,34.86 L 165.44,36.01 L 164.72,36.61 L 163.49,38.03 L 162.91,38.77 L 161.98,40.44 L 160.93,43.25 L 160.66,44.28 L 160.40,46.35 L 160.31,47.38 L 160.42,49.43 L 160.52,50.44 L 160.97,52.40 L 161.24,53.36 L 162.01,55.18 L 162.43,56.07 L 163.49,57.70 L 164.05,58.48 L 165.38,59.86 L 166.07,60.52 L 167.63,61.59 L 170.22,62.81 L 170.78,63.00 L 172.16,63.27 L 172.89,63.38 L 174.53,63.52 L 176.22,63.61 L 179.94,63.43 L 181.79,63.29 L 185.20,62.67 L 185.99,62.49 L 187.38,62.05 L 188.03,61.83 Z" fill="rgba(100,197,88,1)"/>
</g>
</svg>